<?xml version="1.0" encoding="utf-8"?>
<!-- Generator: Adobe Illustrator 17.0.2, SVG Export Plug-In . SVG Version: 6.00 Build 0)  -->
<!DOCTYPE svg PUBLIC "-//W3C//DTD SVG 1.1//EN" "http://www.w3.org/Graphics/SVG/1.1/DTD/svg11.dtd">
<svg version="1.1" id="Layer_1" xmlns="http://www.w3.org/2000/svg" xmlns:xlink="http://www.w3.org/1999/xlink" x="0px" y="0px"
	 viewBox="-184.153 -17.183 409.044 75.996"
	 enable-background="new -184.153 -17.183 409.044 75.996" xml:space="preserve">
<g>
	<g>
		<path fill="#333333" d="M-151.079,6.991c-1.32-1.773-2.949-3.104-4.888-3.991c-1.94-0.886-3.96-1.33-6.064-1.33
			c-2.434,0-4.671,0.495-6.713,1.485c-2.042,0.99-3.805,2.32-5.29,3.991c-1.485,1.671-2.641,3.61-3.465,5.816
			c-0.825,2.207-1.237,4.507-1.237,6.899c0,2.558,0.412,4.94,1.237,7.146c0.825,2.207,1.97,4.126,3.434,5.754
			c1.464,1.631,3.217,2.919,5.259,3.868c2.042,0.949,4.3,1.423,6.775,1.423c2.681,0,5.074-0.526,7.177-1.578
			c2.104-1.052,3.938-2.568,5.507-4.548l3.898,3.279c-1.98,2.641-4.362,4.579-7.146,5.816c-2.784,1.238-5.93,1.857-9.436,1.857
			c-3.135,0-6.063-0.579-8.786-1.732c-2.722-1.154-5.084-2.754-7.084-4.796c-2.001-2.042-3.568-4.464-4.702-7.27
			c-1.135-2.804-1.702-5.878-1.702-9.219c0-3.217,0.546-6.228,1.64-9.033c1.092-2.805,2.63-5.238,4.609-7.301
			c1.98-2.062,4.331-3.691,7.054-4.888c2.722-1.196,5.712-1.794,8.971-1.794c2.97,0,5.826,0.536,8.569,1.609
			c2.743,1.073,5.043,2.826,6.899,5.259L-151.079,6.991z"/>
		<path fill="#333333" d="M-141.797-2.043h5.197v18.562h23.388V-2.043h5.197v43.806h-5.197V21.345h-23.388v20.418h-5.197V-2.043z"/>
		<path fill="#333333" d="M-100.711-2.043h11.199c2.104,0,4.197,0.124,6.28,0.371c2.083,0.248,3.949,0.784,5.6,1.609
			c1.649,0.825,2.99,2.032,4.022,3.62c1.03,1.588,1.547,3.743,1.547,6.466c0,3.217-0.97,5.816-2.908,7.796
			c-1.939,1.98-4.62,3.239-8.044,3.774l12.437,20.171h-6.373l-11.88-19.676h-6.682v19.676h-5.197V-2.043z M-95.514,17.261h4.641
			c1.443,0,2.939-0.04,4.486-0.124c1.547-0.082,2.97-0.35,4.27-0.804c1.299-0.454,2.372-1.165,3.217-2.135
			c0.845-0.969,1.268-2.361,1.268-4.176c0-1.567-0.309-2.825-0.928-3.775c-0.619-0.948-1.433-1.68-2.444-2.197
			c-1.011-0.515-2.145-0.856-3.403-1.02c-1.259-0.164-2.527-0.248-3.805-0.248h-7.301V17.261z"/>
		<path fill="#333333" d="M-46.137,42.877c-3.343,0-6.405-0.579-9.189-1.732c-2.783-1.154-5.197-2.754-7.239-4.796
			c-2.042-2.042-3.63-4.475-4.764-7.301c-1.135-2.825-1.702-5.887-1.702-9.188c0-3.299,0.567-6.362,1.702-9.188
			c1.134-2.825,2.722-5.259,4.764-7.301c2.041-2.042,4.456-3.64,7.239-4.795c2.785-1.154,5.847-1.732,9.189-1.732
			c3.341,0,6.403,0.578,9.188,1.732c2.785,1.155,5.197,2.754,7.239,4.795s3.63,4.476,4.765,7.301
			c1.133,2.826,1.701,5.889,1.701,9.188c0,3.301-0.568,6.363-1.701,9.188c-1.135,2.826-2.723,5.259-4.765,7.301
			s-4.454,3.642-7.239,4.796C-39.734,42.299-42.796,42.877-46.137,42.877z M-46.137,38.051c2.556,0,4.897-0.474,7.022-1.423
			c2.124-0.948,3.948-2.248,5.476-3.899c1.526-1.649,2.711-3.578,3.558-5.785c0.845-2.206,1.267-4.568,1.267-7.084
			c0-2.516-0.422-4.877-1.267-7.084c-0.847-2.206-2.032-4.135-3.558-5.785c-1.528-1.649-3.353-2.949-5.476-3.898
			c-2.126-0.949-4.466-1.423-7.022-1.423c-2.558,0-4.899,0.475-7.024,1.423c-2.124,0.949-3.95,2.249-5.474,3.898
			c-1.528,1.65-2.713,3.579-3.558,5.785c-0.846,2.207-1.268,4.569-1.268,7.084c0,2.517,0.422,4.879,1.268,7.084
			c0.845,2.207,2.03,4.136,3.558,5.785c1.524,1.65,3.351,2.95,5.474,3.899C-51.035,37.577-48.694,38.051-46.137,38.051z"/>
		<path fill="#333333" d="M-18.477-2.043h6.558l25.368,36.381h0.124V-2.043h5.197v43.806h-6.557L-13.157,5.382h-0.124v36.381h-5.197
			V-2.043z"/>
	</g>
	<g>
		<g>
			<g>
				<path fill="#006837" d="M117.778,17.518c-0.037,1.493-0.098,2.946-0.194,4.348c-0.091,1.41-0.283,2.788-0.573,4.141
					c-0.292,1.35-0.71,2.671-1.259,3.968c-0.548,1.296-1.276,2.584-2.191,3.862c-2.046,2.849-4.531,4.91-7.451,6.188
					c-2.916,1.28-6.115,1.917-9.583,1.917c-3.251,0-6.227-0.53-8.926-1.589c-2.706-1.059-5.024-2.545-6.96-4.46
					c-1.933-1.922-3.439-4.21-4.518-6.875c-1.079-2.666-1.61-5.626-1.61-8.873c0-3.363,0.532-6.409,1.61-9.147
					c1.08-2.738,2.601-5.075,4.578-7.011c1.973-1.937,4.334-3.432,7.093-4.49c2.756-1.06,5.795-1.588,9.117-1.588
					c4.272,0,7.995,0.959,11.171,2.876c3.178,1.916,5.661,4.806,7.452,8.678l-10.19,4.273c-0.726-1.972-1.85-3.56-3.368-4.766
					c-1.514-1.207-3.368-1.804-5.556-1.804c-1.754,0-3.311,0.381-4.656,1.148c-1.351,0.767-2.478,1.773-3.368,3.012
					c-0.899,1.241-1.574,2.638-2.028,4.194C85.91,17.069,85.68,18.63,85.68,20.2c0,1.606,0.242,3.188,0.717,4.736
					c0.469,1.551,1.163,2.932,2.08,4.135c0.909,1.207,2.053,2.185,3.425,2.93c1.364,0.748,2.925,1.124,4.679,1.124
					c2.336,0,4.306-0.593,5.914-1.779c1.609-1.183,2.523-2.987,2.738-5.394h-8.761v-8.433H117.778z"/>
			</g>
			<g>
				<path fill="#006837" d="M183.678,32.18h13.65v9.64h-25.033V-1.969h11.383V32.18z"/>
			</g>
			<g>
				<path fill="#006837" d="M210.975,7.671v7.316h12.484v9.645h-12.484V41.82h-11.38V-1.969h25.144v9.64H210.975z"/>
			</g>
		</g>
		<g>
			<path fill="#006837" d="M168.425,20.19c0-13.01-10.588-23.595-23.594-23.595c-13.011,0-23.595,10.587-23.595,23.595
				c0,10.645,7.084,19.664,16.782,22.592l6.584,15.847l7.025-15.847C161.339,39.859,168.425,30.835,168.425,20.19z M144.831,37.63
				c-9.618,0-17.446-7.823-17.446-17.439c0-9.613,7.828-17.439,17.446-17.439c9.612,0,17.443,7.826,17.443,17.439
				C162.274,29.807,154.444,37.63,144.831,37.63z"/>
			<path fill="#006837" d="M150.942,20.22c1.483,0.431,3.045-0.422,3.477-1.915c0.431-1.491-0.421-3.055-1.916-3.484
				c-0.074-0.019-0.147-0.036-0.221-0.052c0.143,0.493,0.157,1.034,0.002,1.569c-0.409,1.42-1.835,2.263-3.26,1.967
				C149.282,19.2,149.976,19.943,150.942,20.22z"/>
			<path fill="#006837" d="M156.739,20.207c-0.076-0.023-0.147-0.037-0.219-0.052c0.138,0.494,0.152,1.034,0,1.567
				c-0.414,1.42-1.846,2.264-3.267,1.97c0.266,0.894,0.957,1.637,1.914,1.915c1.496,0.433,3.053-0.421,3.488-1.915
				C159.085,22.202,158.227,20.637,156.739,20.207z"/>
			<path fill="#006837" d="M151.155,24.458c0.428-1.49-0.429-3.053-1.926-3.484c-0.067-0.02-0.143-0.036-0.214-0.052
				c0.143,0.497,0.152,1.038,0,1.57c-0.414,1.419-1.84,2.263-3.262,1.971c0.259,0.893,0.952,1.633,1.915,1.914
				C149.158,26.809,150.719,25.948,151.155,24.458z"/>
			<path fill="#006837" d="M151.733,27.323c-0.069-0.021-0.143-0.036-0.221-0.052c0.143,0.496,0.162,1.038,0.005,1.57
				c-0.409,1.416-1.842,2.263-3.262,1.968c0.262,0.893,0.954,1.635,1.912,1.916c1.488,0.433,3.053-0.426,3.481-1.92
				C154.084,29.317,153.227,27.754,151.733,27.323z"/>
			<path fill="#006837" d="M144.422,27.323c-0.071-0.021-0.143-0.036-0.219-0.052c0.147,0.496,0.162,1.038,0.005,1.57
				c-0.409,1.416-1.841,2.263-3.267,1.968c0.262,0.893,0.96,1.635,1.916,1.916c1.494,0.433,3.051-0.426,3.486-1.92
				C146.776,29.319,145.917,27.753,144.422,27.323z"/>
		</g>
	</g>
	<g>
		<g>
			<path fill="#333333" d="M46.367,33.282l0.017,4.608l1.857-0.01l-0.017-4.606C47.6,33.322,46.98,33.322,46.367,33.282z"/>
			<path fill="#333333" d="M48.125,8.108l-0.022-4.611l-1.855,0.008l0.017,4.611C46.886,8.069,47.513,8.065,48.125,8.108z"/>
			<path fill="#333333" d="M59.832,21.573l4.606-0.016l-0.005-1.859l-4.608,0.019C59.873,20.339,59.878,20.959,59.832,21.573z"/>
			<path fill="#333333" d="M34.661,19.816l-4.612,0.019l0.007,1.854l4.609-0.016C34.618,21.051,34.618,20.433,34.661,19.816z"/>
			<path fill="#333333" d="M37.726,28.972l-3.249,3.276l1.317,1.306l3.249-3.274C38.576,29.879,38.133,29.444,37.726,28.972z"/>
			<path fill="#333333" d="M56.767,12.415l3.244-3.275l-1.317-1.306l-3.249,3.275C55.917,11.508,56.355,11.947,56.767,12.415z"/>
			<path fill="#333333" d="M55.525,30.214l3.27,3.247l1.31-1.317l-3.273-3.252C56.433,29.364,55.994,29.805,55.525,30.214z"/>
			<path fill="#333333" d="M38.968,11.175l-3.273-3.249l-1.308,1.319l3.273,3.25C38.062,12.024,38.498,11.583,38.968,11.175z"/>
			<path fill="#333333" d="M43.048,8.8l-1.706-4.263l-0.954,0.384l1.702,4.263c0.171-0.079,0.34-0.151,0.522-0.224
				C42.753,8.904,42.898,8.851,43.048,8.8z"/>
			<path fill="#333333" d="M51.444,32.59l1.706,4.261l0.959-0.385l-1.702-4.261c-0.179,0.077-0.353,0.155-0.523,0.225
				C51.736,32.483,51.588,32.539,51.444,32.59z"/>
			<path fill="#333333" d="M35.351,24.893l-4.263,1.704l0.383,0.959l4.263-1.705c-0.077-0.169-0.153-0.346-0.218-0.518
				C35.453,25.185,35.405,25.038,35.351,24.893z"/>
			<path fill="#333333" d="M59.139,16.496l4.261-1.705l-0.38-0.956l-4.261,1.703c0.073,0.171,0.15,0.344,0.215,0.522
				C59.037,16.205,59.083,16.35,59.139,16.496z"/>
			<path fill="#333333" d="M39.996,36.296l0.944,0.404l1.813-4.222c-0.322-0.114-0.638-0.259-0.95-0.407L39.996,36.296z"/>
			<path fill="#333333" d="M54.494,5.096l-0.947-0.401l-1.811,4.213c0.324,0.125,0.639,0.262,0.949,0.408L54.494,5.096z"/>
			<path fill="#333333" d="M31.647,13.445l-0.407,0.945l4.22,1.812c0.121-0.323,0.261-0.636,0.404-0.947L31.647,13.445z"/>
			<path fill="#333333" d="M58.621,26.134l4.22,1.814l0.412-0.95l-4.224-1.808C58.909,25.511,58.778,25.826,58.621,26.134z"/>
		</g>
		<path fill="#333333" d="M62.579,2.818l1.567-4.793c0.198-0.605-0.135-1.262-0.74-1.459l-4.562-1.492
			c-0.605-0.198-1.262,0.135-1.459,0.74l-1.125,3.145C54.472-1.794,52.5-2.33,50.5-2.621V-5.44c4-0.786,7.09-2.985,7.09-5.804
			c0-3.548-4.367-6.122-10.451-6.122s-10.573,2.574-10.573,6.122c0,2.822,2.935,5.023,6.935,5.807v2.829
			c-2,0.299-3.77,0.844-5.552,1.602l-0.991-3.18c-0.198-0.605-0.83-0.938-1.435-0.74l-4.55,1.492
			c-0.605,0.198-0.932,0.854-0.734,1.459l1.592,4.859c-4.992,4.325-8.157,10.703-8.157,17.811c0,12.996,10.574,23.569,23.571,23.569
			c12.996,0,23.57-10.573,23.57-23.569C70.813,13.55,67.614,7.144,62.579,2.818z M40.687-11.244c0-0.528,2.306-2.122,6.5-2.122
			s6.5,1.594,6.5,2.122s-2.306,2.121-6.5,2.121S40.687-10.716,40.687-11.244z M47.244,39.264c-10.239,0-18.57-8.33-18.57-18.569
			s8.331-18.57,18.57-18.57s18.569,8.331,18.569,18.57S57.483,39.264,47.244,39.264z"/>
	</g>
</g>
</svg>
